<svg xmlns="http://www.w3.org/2000/svg" xmlns:xlink="http://www.w3.org/1999/xlink" width="2000" zoomAndPan="magnify" viewBox="0 0 1500 1499.999933" height="2000" preserveAspectRatio="xMidYMid meet" version="1.0"><defs><filter x="0%" y="0%" width="100%" height="100%" id="a82933d3f9"><feColorMatrix values="0 0 0 0 1 0 0 0 0 1 0 0 0 0 1 0 0 0 1 0" color-interpolation-filters="sRGB"/></filter><g/><clipPath id="ae5a770194"><rect x="0" width="426" y="0" height="733"/></clipPath><clipPath id="22769460ab"><rect x="0" width="430" y="0" height="744"/></clipPath><clipPath id="9fb2003367"><path d="M 229.40625 689.304688 L 1265.449219 689.304688 L 1265.449219 809.507812 L 229.40625 809.507812 Z M 229.40625 689.304688 " clip-rule="nonzero"/></clipPath><clipPath id="e2286dbadb"><path d="M 0.40625 0.304688 L 1036.449219 0.304688 L 1036.449219 120.507812 L 0.40625 120.507812 Z M 0.40625 0.304688 " clip-rule="nonzero"/></clipPath><clipPath id="9f65a8dd95"><rect x="0" width="1037" y="0" height="121"/></clipPath><clipPath id="ba8307a2bb"><path d="M 3.074219 3.628906 L 1099.070312 3.628906 L 1099.070312 291.734375 L 3.074219 291.734375 Z M 3.074219 3.628906 " clip-rule="nonzero"/></clipPath><clipPath id="9104a6adf8"><path d="M 0.0742188 0.628906 L 1096.070312 0.628906 L 1096.070312 288.734375 L 0.0742188 288.734375 Z M 0.0742188 0.628906 " clip-rule="nonzero"/></clipPath><clipPath id="6e15801d21"><path d="M 133.742188 3.597656 L 962.402344 3.597656 L 962.402344 285.765625 L 133.742188 285.765625 Z M 133.742188 3.597656 " clip-rule="nonzero"/></clipPath><linearGradient x1="8.873" gradientTransform="matrix(2.96559, 0, 0, 2.956459, 107.427604, 107.726968)" y1="12.5" x2="288.29899" gradientUnits="userSpaceOnUse" y2="12.5" id="94afc9795e"><stop stop-opacity="1" stop-color="rgb(65.098572%, 35.289001%, 0%)" offset="0"/><stop stop-opacity="1" stop-color="rgb(65.098572%, 35.289001%, 0%)" offset="0.125"/><stop stop-opacity="1" stop-color="rgb(64.961243%, 35.298157%, 0.0228882%)" offset="0.132812"/><stop stop-opacity="1" stop-color="rgb(64.486694%, 35.333252%, 0.10376%)" offset="0.136719"/><stop stop-opacity="1" stop-color="rgb(64.149475%, 35.359192%, 0.161743%)" offset="0.140625"/><stop stop-opacity="1" stop-color="rgb(63.812256%, 35.383606%, 0.219727%)" offset="0.144531"/><stop stop-opacity="1" stop-color="rgb(63.476562%, 35.409546%, 0.27771%)" offset="0.148437"/><stop stop-opacity="1" stop-color="rgb(63.139343%, 35.43396%, 0.335693%)" offset="0.152344"/><stop stop-opacity="1" stop-color="rgb(62.802124%, 35.458374%, 0.393677%)" offset="0.15625"/><stop stop-opacity="1" stop-color="rgb(62.464905%, 35.482788%, 0.45166%)" offset="0.160156"/><stop stop-opacity="1" stop-color="rgb(62.127686%, 35.508728%, 0.509644%)" offset="0.164062"/><stop stop-opacity="1" stop-color="rgb(61.790466%, 35.533142%, 0.567627%)" offset="0.167969"/><stop stop-opacity="1" stop-color="rgb(61.453247%, 35.557556%, 0.62561%)" offset="0.171875"/><stop stop-opacity="1" stop-color="rgb(61.116028%, 35.58197%, 0.683594%)" offset="0.175781"/><stop stop-opacity="1" stop-color="rgb(60.778809%, 35.60791%, 0.741577%)" offset="0.179687"/><stop stop-opacity="1" stop-color="rgb(60.441589%, 35.632324%, 0.799561%)" offset="0.183594"/><stop stop-opacity="1" stop-color="rgb(60.105896%, 35.656738%, 0.857544%)" offset="0.1875"/><stop stop-opacity="1" stop-color="rgb(59.768677%, 35.681152%, 0.915527%)" offset="0.191406"/><stop stop-opacity="1" stop-color="rgb(59.431458%, 35.707092%, 0.973511%)" offset="0.195312"/><stop stop-opacity="1" stop-color="rgb(59.094238%, 35.731506%, 1.029968%)" offset="0.199219"/><stop stop-opacity="1" stop-color="rgb(58.757019%, 35.75592%, 1.087952%)" offset="0.203125"/><stop stop-opacity="1" stop-color="rgb(58.4198%, 35.780334%, 1.145935%)" offset="0.207031"/><stop stop-opacity="1" stop-color="rgb(58.082581%, 35.806274%, 1.203918%)" offset="0.210937"/><stop stop-opacity="1" stop-color="rgb(57.745361%, 35.830688%, 1.261902%)" offset="0.214844"/><stop stop-opacity="1" stop-color="rgb(57.408142%, 35.856628%, 1.319885%)" offset="0.21875"/><stop stop-opacity="1" stop-color="rgb(57.070923%, 35.881042%, 1.377869%)" offset="0.222656"/><stop stop-opacity="1" stop-color="rgb(56.735229%, 35.905457%, 1.435852%)" offset="0.226562"/><stop stop-opacity="1" stop-color="rgb(56.39801%, 35.929871%, 1.493835%)" offset="0.230469"/><stop stop-opacity="1" stop-color="rgb(56.060791%, 35.955811%, 1.551819%)" offset="0.234375"/><stop stop-opacity="1" stop-color="rgb(55.723572%, 35.980225%, 1.609802%)" offset="0.238281"/><stop stop-opacity="1" stop-color="rgb(55.386353%, 36.004639%, 1.667786%)" offset="0.242188"/><stop stop-opacity="1" stop-color="rgb(55.049133%, 36.029053%, 1.725769%)" offset="0.246094"/><stop stop-opacity="1" stop-color="rgb(54.711914%, 36.054993%, 1.783752%)" offset="0.25"/><stop stop-opacity="1" stop-color="rgb(54.374695%, 36.079407%, 1.841736%)" offset="0.253906"/><stop stop-opacity="1" stop-color="rgb(54.037476%, 36.103821%, 1.899719%)" offset="0.257812"/><stop stop-opacity="1" stop-color="rgb(53.700256%, 36.128235%, 1.957703%)" offset="0.261719"/><stop stop-opacity="1" stop-color="rgb(53.363037%, 36.154175%, 2.015686%)" offset="0.265625"/><stop stop-opacity="1" stop-color="rgb(53.025818%, 36.178589%, 2.073669%)" offset="0.269531"/><stop stop-opacity="1" stop-color="rgb(52.690125%, 36.203003%, 2.131653%)" offset="0.273437"/><stop stop-opacity="1" stop-color="rgb(52.352905%, 36.227417%, 2.18811%)" offset="0.277344"/><stop stop-opacity="1" stop-color="rgb(52.015686%, 36.253357%, 2.246094%)" offset="0.28125"/><stop stop-opacity="1" stop-color="rgb(51.678467%, 36.277771%, 2.304077%)" offset="0.285156"/><stop stop-opacity="1" stop-color="rgb(51.341248%, 36.303711%, 2.362061%)" offset="0.289062"/><stop stop-opacity="1" stop-color="rgb(51.004028%, 36.328125%, 2.420044%)" offset="0.292969"/><stop stop-opacity="1" stop-color="rgb(50.666809%, 36.352539%, 2.478027%)" offset="0.296875"/><stop stop-opacity="1" stop-color="rgb(50.32959%, 36.376953%, 2.536011%)" offset="0.300781"/><stop stop-opacity="1" stop-color="rgb(49.992371%, 36.402893%, 2.593994%)" offset="0.304688"/><stop stop-opacity="1" stop-color="rgb(49.655151%, 36.427307%, 2.651978%)" offset="0.308594"/><stop stop-opacity="1" stop-color="rgb(49.319458%, 36.451721%, 2.709961%)" offset="0.3125"/><stop stop-opacity="1" stop-color="rgb(48.982239%, 36.476135%, 2.767944%)" offset="0.316406"/><stop stop-opacity="1" stop-color="rgb(48.64502%, 36.502075%, 2.825928%)" offset="0.320312"/><stop stop-opacity="1" stop-color="rgb(48.3078%, 36.526489%, 2.883911%)" offset="0.324219"/><stop stop-opacity="1" stop-color="rgb(47.970581%, 36.550903%, 2.941895%)" offset="0.328125"/><stop stop-opacity="1" stop-color="rgb(47.633362%, 36.575317%, 2.999878%)" offset="0.332031"/><stop stop-opacity="1" stop-color="rgb(47.296143%, 36.601257%, 3.057861%)" offset="0.335938"/><stop stop-opacity="1" stop-color="rgb(46.958923%, 36.625671%, 3.115845%)" offset="0.339844"/><stop stop-opacity="1" stop-color="rgb(46.621704%, 36.650085%, 3.173828%)" offset="0.34375"/><stop stop-opacity="1" stop-color="rgb(46.284485%, 36.6745%, 3.230286%)" offset="0.347656"/><stop stop-opacity="1" stop-color="rgb(45.948792%, 36.700439%, 3.288269%)" offset="0.351562"/><stop stop-opacity="1" stop-color="rgb(45.611572%, 36.724854%, 3.346252%)" offset="0.355469"/><stop stop-opacity="1" stop-color="rgb(45.274353%, 36.750793%, 3.404236%)" offset="0.359375"/><stop stop-opacity="1" stop-color="rgb(44.937134%, 36.775208%, 3.462219%)" offset="0.363281"/><stop stop-opacity="1" stop-color="rgb(44.599915%, 36.799622%, 3.520203%)" offset="0.367188"/><stop stop-opacity="1" stop-color="rgb(44.262695%, 36.824036%, 3.578186%)" offset="0.371094"/><stop stop-opacity="1" stop-color="rgb(43.925476%, 36.849976%, 3.636169%)" offset="0.375"/><stop stop-opacity="1" stop-color="rgb(43.588257%, 36.87439%, 3.694153%)" offset="0.378906"/><stop stop-opacity="1" stop-color="rgb(43.251038%, 36.898804%, 3.752136%)" offset="0.382812"/><stop stop-opacity="1" stop-color="rgb(42.913818%, 36.923218%, 3.81012%)" offset="0.386719"/><stop stop-opacity="1" stop-color="rgb(42.576599%, 36.949158%, 3.868103%)" offset="0.390625"/><stop stop-opacity="1" stop-color="rgb(42.23938%, 36.973572%, 3.926086%)" offset="0.394531"/><stop stop-opacity="1" stop-color="rgb(41.903687%, 36.997986%, 3.98407%)" offset="0.398438"/><stop stop-opacity="1" stop-color="rgb(41.566467%, 37.0224%, 4.042053%)" offset="0.402344"/><stop stop-opacity="1" stop-color="rgb(41.229248%, 37.04834%, 4.100037%)" offset="0.40625"/><stop stop-opacity="1" stop-color="rgb(40.892029%, 37.072754%, 4.15802%)" offset="0.410156"/><stop stop-opacity="1" stop-color="rgb(40.55481%, 37.097168%, 4.216003%)" offset="0.414062"/><stop stop-opacity="1" stop-color="rgb(40.21759%, 37.121582%, 4.272461%)" offset="0.417969"/><stop stop-opacity="1" stop-color="rgb(39.880371%, 37.147522%, 4.330444%)" offset="0.421875"/><stop stop-opacity="1" stop-color="rgb(39.543152%, 37.171936%, 4.388428%)" offset="0.425781"/><stop stop-opacity="1" stop-color="rgb(39.205933%, 37.197876%, 4.446411%)" offset="0.429688"/><stop stop-opacity="1" stop-color="rgb(38.868713%, 37.22229%, 4.504395%)" offset="0.433594"/><stop stop-opacity="1" stop-color="rgb(38.53302%, 37.246704%, 4.562378%)" offset="0.4375"/><stop stop-opacity="1" stop-color="rgb(38.195801%, 37.271118%, 4.620361%)" offset="0.441406"/><stop stop-opacity="1" stop-color="rgb(37.858582%, 37.297058%, 4.678345%)" offset="0.445312"/><stop stop-opacity="1" stop-color="rgb(37.521362%, 37.321472%, 4.736328%)" offset="0.449219"/><stop stop-opacity="1" stop-color="rgb(37.184143%, 37.345886%, 4.794312%)" offset="0.453125"/><stop stop-opacity="1" stop-color="rgb(36.846924%, 37.3703%, 4.852295%)" offset="0.457031"/><stop stop-opacity="1" stop-color="rgb(36.509705%, 37.39624%, 4.910278%)" offset="0.460938"/><stop stop-opacity="1" stop-color="rgb(36.172485%, 37.420654%, 4.968262%)" offset="0.464844"/><stop stop-opacity="1" stop-color="rgb(35.835266%, 37.445068%, 5.026245%)" offset="0.46875"/><stop stop-opacity="1" stop-color="rgb(35.498047%, 37.469482%, 5.084229%)" offset="0.472656"/><stop stop-opacity="1" stop-color="rgb(35.162354%, 37.495422%, 5.142212%)" offset="0.476562"/><stop stop-opacity="1" stop-color="rgb(34.825134%, 37.519836%, 5.200195%)" offset="0.480469"/><stop stop-opacity="1" stop-color="rgb(34.487915%, 37.54425%, 5.258179%)" offset="0.484375"/><stop stop-opacity="1" stop-color="rgb(34.150696%, 37.568665%, 5.316162%)" offset="0.488281"/><stop stop-opacity="1" stop-color="rgb(33.813477%, 37.594604%, 5.374146%)" offset="0.492187"/><stop stop-opacity="1" stop-color="rgb(33.476257%, 37.619019%, 5.430603%)" offset="0.496094"/><stop stop-opacity="1" stop-color="rgb(33.139038%, 37.644958%, 5.488586%)" offset="0.5"/><stop stop-opacity="1" stop-color="rgb(32.801819%, 37.669373%, 5.54657%)" offset="0.503906"/><stop stop-opacity="1" stop-color="rgb(32.4646%, 37.693787%, 5.604553%)" offset="0.507812"/><stop stop-opacity="1" stop-color="rgb(32.12738%, 37.718201%, 5.662537%)" offset="0.511719"/><stop stop-opacity="1" stop-color="rgb(31.791687%, 37.744141%, 5.72052%)" offset="0.515625"/><stop stop-opacity="1" stop-color="rgb(31.454468%, 37.768555%, 5.778503%)" offset="0.519531"/><stop stop-opacity="1" stop-color="rgb(31.117249%, 37.792969%, 5.836487%)" offset="0.523438"/><stop stop-opacity="1" stop-color="rgb(30.780029%, 37.817383%, 5.89447%)" offset="0.527344"/><stop stop-opacity="1" stop-color="rgb(30.44281%, 37.843323%, 5.952454%)" offset="0.53125"/><stop stop-opacity="1" stop-color="rgb(30.105591%, 37.867737%, 6.010437%)" offset="0.535156"/><stop stop-opacity="1" stop-color="rgb(29.768372%, 37.892151%, 6.06842%)" offset="0.539062"/><stop stop-opacity="1" stop-color="rgb(29.431152%, 37.916565%, 6.126404%)" offset="0.542969"/><stop stop-opacity="1" stop-color="rgb(29.093933%, 37.942505%, 6.184387%)" offset="0.546875"/><stop stop-opacity="1" stop-color="rgb(28.756714%, 37.966919%, 6.242371%)" offset="0.550781"/><stop stop-opacity="1" stop-color="rgb(28.419495%, 37.991333%, 6.300354%)" offset="0.554688"/><stop stop-opacity="1" stop-color="rgb(28.082275%, 38.015747%, 6.358337%)" offset="0.558594"/><stop stop-opacity="1" stop-color="rgb(27.746582%, 38.041687%, 6.416321%)" offset="0.5625"/><stop stop-opacity="1" stop-color="rgb(27.409363%, 38.066101%, 6.472778%)" offset="0.566406"/><stop stop-opacity="1" stop-color="rgb(27.072144%, 38.092041%, 6.530762%)" offset="0.570312"/><stop stop-opacity="1" stop-color="rgb(26.734924%, 38.116455%, 6.588745%)" offset="0.574219"/><stop stop-opacity="1" stop-color="rgb(26.397705%, 38.140869%, 6.646729%)" offset="0.578125"/><stop stop-opacity="1" stop-color="rgb(26.060486%, 38.165283%, 6.704712%)" offset="0.582031"/><stop stop-opacity="1" stop-color="rgb(25.723267%, 38.191223%, 6.762695%)" offset="0.585938"/><stop stop-opacity="1" stop-color="rgb(25.386047%, 38.215637%, 6.820679%)" offset="0.589844"/><stop stop-opacity="1" stop-color="rgb(25.048828%, 38.240051%, 6.878662%)" offset="0.59375"/><stop stop-opacity="1" stop-color="rgb(24.711609%, 38.264465%, 6.936646%)" offset="0.597656"/><stop stop-opacity="1" stop-color="rgb(24.375916%, 38.290405%, 6.994629%)" offset="0.601562"/><stop stop-opacity="1" stop-color="rgb(24.038696%, 38.314819%, 7.052612%)" offset="0.605469"/><stop stop-opacity="1" stop-color="rgb(23.701477%, 38.339233%, 7.110596%)" offset="0.609375"/><stop stop-opacity="1" stop-color="rgb(23.364258%, 38.363647%, 7.168579%)" offset="0.613281"/><stop stop-opacity="1" stop-color="rgb(23.027039%, 38.389587%, 7.226562%)" offset="0.617188"/><stop stop-opacity="1" stop-color="rgb(22.689819%, 38.414001%, 7.284546%)" offset="0.621094"/><stop stop-opacity="1" stop-color="rgb(22.3526%, 38.438416%, 7.342529%)" offset="0.625"/><stop stop-opacity="1" stop-color="rgb(22.015381%, 38.46283%, 7.400513%)" offset="0.628906"/><stop stop-opacity="1" stop-color="rgb(21.678162%, 38.48877%, 7.458496%)" offset="0.632812"/><stop stop-opacity="1" stop-color="rgb(21.340942%, 38.513184%, 7.516479%)" offset="0.636719"/><stop stop-opacity="1" stop-color="rgb(21.005249%, 38.539124%, 7.574463%)" offset="0.640625"/><stop stop-opacity="1" stop-color="rgb(20.66803%, 38.563538%, 7.63092%)" offset="0.644531"/><stop stop-opacity="1" stop-color="rgb(20.330811%, 38.587952%, 7.688904%)" offset="0.648438"/><stop stop-opacity="1" stop-color="rgb(19.993591%, 38.612366%, 7.746887%)" offset="0.652344"/><stop stop-opacity="1" stop-color="rgb(19.656372%, 38.638306%, 7.804871%)" offset="0.65625"/><stop stop-opacity="1" stop-color="rgb(19.319153%, 38.66272%, 7.862854%)" offset="0.660156"/><stop stop-opacity="1" stop-color="rgb(18.981934%, 38.687134%, 7.920837%)" offset="0.664062"/><stop stop-opacity="1" stop-color="rgb(18.644714%, 38.711548%, 7.978821%)" offset="0.667969"/><stop stop-opacity="1" stop-color="rgb(18.307495%, 38.737488%, 8.036804%)" offset="0.671875"/><stop stop-opacity="1" stop-color="rgb(17.970276%, 38.761902%, 8.094788%)" offset="0.675781"/><stop stop-opacity="1" stop-color="rgb(17.633057%, 38.786316%, 8.152771%)" offset="0.679688"/><stop stop-opacity="1" stop-color="rgb(17.295837%, 38.81073%, 8.210754%)" offset="0.683594"/><stop stop-opacity="1" stop-color="rgb(16.960144%, 38.83667%, 8.268738%)" offset="0.6875"/><stop stop-opacity="1" stop-color="rgb(16.622925%, 38.861084%, 8.326721%)" offset="0.691406"/><stop stop-opacity="1" stop-color="rgb(16.285706%, 38.885498%, 8.384705%)" offset="0.695313"/><stop stop-opacity="1" stop-color="rgb(15.948486%, 38.909912%, 8.442688%)" offset="0.699219"/><stop stop-opacity="1" stop-color="rgb(15.611267%, 38.935852%, 8.500671%)" offset="0.703125"/><stop stop-opacity="1" stop-color="rgb(15.274048%, 38.960266%, 8.558655%)" offset="0.707031"/><stop stop-opacity="1" stop-color="rgb(14.936829%, 38.986206%, 8.616638%)" offset="0.710938"/><stop stop-opacity="1" stop-color="rgb(14.599609%, 39.01062%, 8.673096%)" offset="0.714844"/><stop stop-opacity="1" stop-color="rgb(14.26239%, 39.035034%, 8.731079%)" offset="0.71875"/><stop stop-opacity="1" stop-color="rgb(13.925171%, 39.059448%, 8.789062%)" offset="0.722656"/><stop stop-opacity="1" stop-color="rgb(13.589478%, 39.085388%, 8.847046%)" offset="0.726562"/><stop stop-opacity="1" stop-color="rgb(13.252258%, 39.109802%, 8.905029%)" offset="0.730469"/><stop stop-opacity="1" stop-color="rgb(12.915039%, 39.134216%, 8.963013%)" offset="0.734375"/><stop stop-opacity="1" stop-color="rgb(12.57782%, 39.15863%, 9.020996%)" offset="0.738281"/><stop stop-opacity="1" stop-color="rgb(12.240601%, 39.18457%, 9.078979%)" offset="0.742188"/><stop stop-opacity="1" stop-color="rgb(11.903381%, 39.208984%, 9.136963%)" offset="0.746094"/><stop stop-opacity="1" stop-color="rgb(11.566162%, 39.233398%, 9.194946%)" offset="0.75"/><stop stop-opacity="1" stop-color="rgb(11.228943%, 39.257812%, 9.25293%)" offset="0.753906"/><stop stop-opacity="1" stop-color="rgb(10.891724%, 39.283752%, 9.310913%)" offset="0.757812"/><stop stop-opacity="1" stop-color="rgb(10.554504%, 39.308167%, 9.368896%)" offset="0.761719"/><stop stop-opacity="1" stop-color="rgb(10.218811%, 39.332581%, 9.42688%)" offset="0.765625"/><stop stop-opacity="1" stop-color="rgb(9.881592%, 39.356995%, 9.484863%)" offset="0.769531"/><stop stop-opacity="1" stop-color="rgb(9.544373%, 39.382935%, 9.542847%)" offset="0.773438"/><stop stop-opacity="1" stop-color="rgb(9.207153%, 39.407349%, 9.60083%)" offset="0.777344"/><stop stop-opacity="1" stop-color="rgb(8.869934%, 39.433289%, 9.658813%)" offset="0.78125"/><stop stop-opacity="1" stop-color="rgb(8.532715%, 39.457703%, 9.715271%)" offset="0.785156"/><stop stop-opacity="1" stop-color="rgb(8.195496%, 39.482117%, 9.773254%)" offset="0.789062"/><stop stop-opacity="1" stop-color="rgb(7.858276%, 39.506531%, 9.831238%)" offset="0.792969"/><stop stop-opacity="1" stop-color="rgb(7.521057%, 39.532471%, 9.889221%)" offset="0.796875"/><stop stop-opacity="1" stop-color="rgb(7.183838%, 39.556885%, 9.947205%)" offset="0.800781"/><stop stop-opacity="1" stop-color="rgb(6.846619%, 39.581299%, 10.005188%)" offset="0.804688"/><stop stop-opacity="1" stop-color="rgb(6.509399%, 39.605713%, 10.063171%)" offset="0.808594"/><stop stop-opacity="1" stop-color="rgb(6.173706%, 39.631653%, 10.121155%)" offset="0.8125"/><stop stop-opacity="1" stop-color="rgb(5.836487%, 39.656067%, 10.179138%)" offset="0.816406"/><stop stop-opacity="1" stop-color="rgb(5.499268%, 39.680481%, 10.237122%)" offset="0.820313"/><stop stop-opacity="1" stop-color="rgb(5.162048%, 39.704895%, 10.295105%)" offset="0.824219"/><stop stop-opacity="1" stop-color="rgb(4.824829%, 39.730835%, 10.353088%)" offset="0.828125"/><stop stop-opacity="1" stop-color="rgb(4.48761%, 39.755249%, 10.411072%)" offset="0.832031"/><stop stop-opacity="1" stop-color="rgb(4.150391%, 39.779663%, 10.469055%)" offset="0.835938"/><stop stop-opacity="1" stop-color="rgb(3.813171%, 39.804077%, 10.527039%)" offset="0.839844"/><stop stop-opacity="1" stop-color="rgb(3.475952%, 39.830017%, 10.585022%)" offset="0.84375"/><stop stop-opacity="1" stop-color="rgb(3.138733%, 39.854431%, 10.643005%)" offset="0.847656"/><stop stop-opacity="1" stop-color="rgb(2.80304%, 39.880371%, 10.700989%)" offset="0.851562"/><stop stop-opacity="1" stop-color="rgb(2.46582%, 39.904785%, 10.758972%)" offset="0.855469"/><stop stop-opacity="1" stop-color="rgb(2.128601%, 39.929199%, 10.816956%)" offset="0.859375"/><stop stop-opacity="1" stop-color="rgb(1.791382%, 39.953613%, 10.873413%)" offset="0.863281"/><stop stop-opacity="1" stop-color="rgb(1.454163%, 39.979553%, 10.931396%)" offset="0.867188"/><stop stop-opacity="1" stop-color="rgb(1.316833%, 39.988708%, 10.954285%)" offset="0.875"/><stop stop-opacity="1" stop-color="rgb(1.179504%, 39.99939%, 10.978699%)" offset="1"/></linearGradient><clipPath id="7636694cfd"><rect x="0" width="1097" y="0" height="289"/></clipPath><clipPath id="167f5d3195"><path d="M 0.0742188 0.628906 L 1096.070312 0.628906 L 1096.070312 288.734375 L 0.0742188 288.734375 Z M 0.0742188 0.628906 " clip-rule="nonzero"/></clipPath><clipPath id="eecb125a27"><rect x="0" width="1097" y="0" height="289"/></clipPath><clipPath id="4061fad925"><rect x="0" width="1097" y="0" height="289"/></clipPath><mask id="e98b7b0572"><g filter="url(#a82933d3f9)"><g transform="matrix(1, 0, 0, 1, 0, 0.000000000000113687)"><g clip-path="url(#4061fad925)"><g clip-path="url(#167f5d3195)"><g transform="matrix(1, 0, 0, 1, 0, 0.000000000000113687)"><g clip-path="url(#eecb125a27)"><g fill="#000000" fill-opacity="1"><g transform="translate(240.937237, 163.987421)"><g><path d="M 22.484375 0.640625 C 18.648438 0.640625 15.179688 -0.191406 12.078125 -1.859375 C 8.972656 -3.523438 6.53125 -5.835938 4.75 -8.796875 C 2.976562 -11.753906 2.09375 -15.097656 2.09375 -18.828125 C 2.09375 -22.554688 2.976562 -25.898438 4.75 -28.859375 C 6.53125 -31.816406 8.972656 -34.128906 12.078125 -35.796875 C 15.179688 -37.460938 18.671875 -38.296875 22.546875 -38.296875 C 25.804688 -38.296875 28.753906 -37.722656 31.390625 -36.578125 C 34.023438 -35.429688 36.238281 -33.78125 38.03125 -31.625 L 32.4375 -26.46875 C 29.894531 -29.40625 26.738281 -30.875 22.96875 -30.875 C 20.632812 -30.875 18.550781 -30.363281 16.71875 -29.34375 C 14.894531 -28.320312 13.472656 -26.894531 12.453125 -25.0625 C 11.429688 -23.238281 10.921875 -21.160156 10.921875 -18.828125 C 10.921875 -16.492188 11.429688 -14.410156 12.453125 -12.578125 C 13.472656 -10.753906 14.894531 -9.332031 16.71875 -8.3125 C 18.550781 -7.289062 20.632812 -6.78125 22.96875 -6.78125 C 26.738281 -6.78125 29.894531 -8.269531 32.4375 -11.25 L 38.03125 -6.078125 C 36.238281 -3.890625 34.015625 -2.222656 31.359375 -1.078125 C 28.703125 0.0664062 25.742188 0.640625 22.484375 0.640625 Z M 22.484375 0.640625 "/></g></g></g><g fill="#000000" fill-opacity="1"><g transform="translate(298.975499, 163.987421)"><g><path d="M 29.265625 -8.0625 L 11.78125 -8.0625 L 8.453125 0 L -0.484375 0 L 16.296875 -37.65625 L 24.90625 -37.65625 L 41.75 0 L 32.59375 0 Z M 26.515625 -14.6875 L 20.546875 -29.109375 L 14.578125 -14.6875 Z M 26.515625 -14.6875 "/></g></g></g><g fill="#000000" fill-opacity="1"><g transform="translate(358.788731, 163.987421)"><g><path d="M 38.734375 0 L 38.6875 -22.59375 L 27.59375 -3.984375 L 23.671875 -3.984375 L 12.640625 -22.109375 L 12.640625 0 L 4.46875 0 L 4.46875 -37.65625 L 11.671875 -37.65625 L 25.765625 -14.25 L 39.640625 -37.65625 L 46.796875 -37.65625 L 46.90625 0 Z M 38.734375 0 "/></g></g></g><g fill="#000000" fill-opacity="1"><g transform="translate(428.767914, 163.987421)"><g><path d="M 20.765625 -37.65625 C 24.097656 -37.65625 26.992188 -37.097656 29.453125 -35.984375 C 31.910156 -34.878906 33.800781 -33.300781 35.125 -31.25 C 36.457031 -29.207031 37.125 -26.789062 37.125 -24 C 37.125 -21.226562 36.457031 -18.8125 35.125 -16.75 C 33.800781 -14.695312 31.910156 -13.117188 29.453125 -12.015625 C 26.992188 -10.921875 24.097656 -10.375 20.765625 -10.375 L 13.1875 -10.375 L 13.1875 0 L 4.46875 0 L 4.46875 -37.65625 Z M 20.28125 -17.484375 C 22.894531 -17.484375 24.882812 -18.046875 26.25 -19.171875 C 27.613281 -20.304688 28.296875 -21.914062 28.296875 -24 C 28.296875 -26.113281 27.613281 -27.734375 26.25 -28.859375 C 24.882812 -29.992188 22.894531 -30.5625 20.28125 -30.5625 L 13.1875 -30.5625 L 13.1875 -17.484375 Z M 20.28125 -17.484375 "/></g></g></g><g fill="#000000" fill-opacity="1"><g transform="translate(486.752381, 163.987421)"><g><path d="M 21.203125 0.640625 C 15.816406 0.640625 11.625 -0.84375 8.625 -3.8125 C 5.632812 -6.789062 4.140625 -11.039062 4.140625 -16.5625 L 4.140625 -37.65625 L 12.859375 -37.65625 L 12.859375 -16.890625 C 12.859375 -10.148438 15.65625 -6.78125 21.25 -6.78125 C 23.976562 -6.78125 26.054688 -7.59375 27.484375 -9.21875 C 28.921875 -10.851562 29.640625 -13.410156 29.640625 -16.890625 L 29.640625 -37.65625 L 38.25 -37.65625 L 38.25 -16.5625 C 38.25 -11.039062 36.75 -6.789062 33.75 -3.8125 C 30.757812 -0.84375 26.578125 0.640625 21.203125 0.640625 Z M 21.203125 0.640625 "/></g></g></g><g fill="#000000" fill-opacity="1"><g transform="translate(547.748954, 163.987421)"><g><path d="M 16.84375 0.640625 C 13.863281 0.640625 10.984375 0.238281 8.203125 -0.5625 C 5.421875 -1.375 3.1875 -2.425781 1.5 -3.71875 L 4.46875 -10.28125 C 6.082031 -9.09375 8 -8.140625 10.21875 -7.421875 C 12.445312 -6.703125 14.671875 -6.34375 16.890625 -6.34375 C 19.367188 -6.34375 21.195312 -6.707031 22.375 -7.4375 C 23.5625 -8.175781 24.15625 -9.15625 24.15625 -10.375 C 24.15625 -11.28125 23.804688 -12.023438 23.109375 -12.609375 C 22.410156 -13.203125 21.515625 -13.675781 20.421875 -14.03125 C 19.328125 -14.394531 17.847656 -14.789062 15.984375 -15.21875 C 13.109375 -15.90625 10.753906 -16.585938 8.921875 -17.265625 C 7.097656 -17.953125 5.53125 -19.046875 4.21875 -20.546875 C 2.914062 -22.054688 2.265625 -24.066406 2.265625 -26.578125 C 2.265625 -28.765625 2.851562 -30.742188 4.03125 -32.515625 C 5.21875 -34.296875 7.003906 -35.703125 9.390625 -36.734375 C 11.773438 -37.773438 14.6875 -38.296875 18.125 -38.296875 C 20.53125 -38.296875 22.878906 -38.007812 25.171875 -37.4375 C 27.472656 -36.863281 29.484375 -36.039062 31.203125 -34.96875 L 28.515625 -28.34375 C 25.035156 -30.320312 21.554688 -31.3125 18.078125 -31.3125 C 15.640625 -31.3125 13.835938 -30.914062 12.671875 -30.125 C 11.503906 -29.332031 10.921875 -28.289062 10.921875 -27 C 10.921875 -25.707031 11.59375 -24.75 12.9375 -24.125 C 14.28125 -23.5 16.332031 -22.878906 19.09375 -22.265625 C 21.96875 -21.585938 24.316406 -20.90625 26.140625 -20.21875 C 27.972656 -19.539062 29.539062 -18.46875 30.84375 -17 C 32.15625 -15.53125 32.8125 -13.539062 32.8125 -11.03125 C 32.8125 -8.875 32.210938 -6.90625 31.015625 -5.125 C 29.816406 -3.351562 28.015625 -1.945312 25.609375 -0.90625 C 23.203125 0.125 20.28125 0.640625 16.84375 0.640625 Z M 16.84375 0.640625 "/></g></g></g><g fill="#000000" fill-opacity="1"><g transform="translate(600.677323, 163.987421)"><g/></g></g><g fill="#000000" fill-opacity="1"><g transform="translate(634.510969, 163.987421)"><g><path d="M 12.265625 -30.5625 L 0.21875 -30.5625 L 0.21875 -37.65625 L 33.03125 -37.65625 L 33.03125 -30.5625 L 20.984375 -30.5625 L 20.984375 0 L 12.265625 0 Z M 12.265625 -30.5625 "/></g></g></g><g fill="#000000" fill-opacity="1"><g transform="translate(686.363588, 163.987421)"><g><path d="M 29.265625 -8.0625 L 11.78125 -8.0625 L 8.453125 0 L -0.484375 0 L 16.296875 -37.65625 L 24.90625 -37.65625 L 41.75 0 L 32.59375 0 Z M 26.515625 -14.6875 L 20.546875 -29.109375 L 14.578125 -14.6875 Z M 26.515625 -14.6875 "/></g></g></g><g fill="#000000" fill-opacity="1"><g transform="translate(746.17682, 163.987421)"><g><path d="M 4.46875 -37.65625 L 13.1875 -37.65625 L 13.1875 -7.09375 L 32.0625 -7.09375 L 32.0625 0 L 4.46875 0 Z M 4.46875 -37.65625 "/></g></g></g><g fill="#000000" fill-opacity="1"><g transform="translate(797.276423, 163.987421)"><g><path d="M 18.1875 -14.796875 L 13.125 -9.515625 L 13.125 0 L 4.46875 0 L 4.46875 -37.65625 L 13.125 -37.65625 L 13.125 -20.0625 L 29.796875 -37.65625 L 39.484375 -37.65625 L 23.890625 -20.875 L 40.40625 0 L 30.234375 0 Z M 18.1875 -14.796875 "/></g></g></g></g></g></g></g></g></g></mask><clipPath id="65949650c9"><path d="M 133.742188 3.597656 L 962.402344 3.597656 L 962.402344 285.765625 L 133.742188 285.765625 Z M 133.742188 3.597656 " clip-rule="nonzero"/></clipPath><clipPath id="ce3daaa822"><rect x="0" width="1097" y="0" height="289"/></clipPath><clipPath id="55029d059e"><rect x="0" width="1097" y="0" height="289"/></clipPath><clipPath id="020c6a1bc2"><rect x="0" width="1103" y="0" height="295"/></clipPath></defs><rect x="-150" width="1800" fill="#ffffff" y="-149.999993" height="1799.99992" fill-opacity="1"/><rect x="-150" width="1800" fill="#c7b99e" y="-149.999993" height="1799.99992" fill-opacity="1"/><g transform="matrix(1, 0, 0, 1, 734, 377)"><g clip-path="url(#ae5a770194)"><g fill="#004b1a" fill-opacity="1"><g transform="translate(2.243976, 593.890869)"><g><path d="M 246.984375 -10.953125 L 246.984375 -448.8125 L 305.8125 -448.8125 C 326.789062 -448.8125 345.148438 -438.09375 360.890625 -416.65625 C 376.628906 -395.21875 387.003906 -366.023438 392.015625 -329.078125 L 406.390625 -329.078125 L 396.125 -448.125 C 395.664062 -455.875 391.101562 -459.75 382.4375 -459.75 L 45.15625 -459.75 C 36.488281 -459.75 31.925781 -455.875 31.46875 -448.125 L 21.203125 -329.078125 L 35.578125 -329.078125 C 40.597656 -366.023438 50.972656 -395.21875 66.703125 -416.65625 C 82.441406 -438.09375 100.800781 -448.8125 121.78125 -448.8125 L 180.625 -448.8125 L 180.625 -10.953125 L 121.78125 -10.953125 L 121.78125 0 L 305.8125 0 L 305.8125 -10.953125 Z M 246.984375 -10.953125 "/></g></g></g></g></g><g transform="matrix(1, 0, 0, 1, 307, 378)"><g clip-path="url(#22769460ab)"><g fill="#946200" fill-opacity="1"><g transform="translate(2.473766, 602.999896)"><g><path d="M 396.859375 -141.09375 C 394.535156 -141.09375 392.21875 -138.539062 389.90625 -133.4375 C 381.5625 -114.445312 372.523438 -96.722656 362.796875 -80.265625 C 353.066406 -63.816406 341.945312 -49.566406 329.4375 -37.515625 C 316.925781 -25.472656 303.023438 -16.09375 287.734375 -9.375 C 272.441406 -2.664062 255.53125 0.6875 237 0.6875 C 194.832031 0.6875 163.554688 -15.757812 143.171875 -48.65625 C 122.785156 -81.550781 112.59375 -129.738281 112.59375 -193.21875 L 112.59375 -271.0625 C 112.59375 -332.21875 123.015625 -379.359375 143.859375 -412.484375 C 164.710938 -445.617188 196.914062 -462.1875 240.46875 -462.1875 C 258.539062 -462.1875 274.988281 -459.289062 289.8125 -453.5 C 304.644531 -447.707031 318.082031 -439.710938 330.125 -429.515625 C 342.175781 -419.328125 352.601562 -407.050781 361.40625 -392.6875 C 370.207031 -378.320312 377.390625 -362.800781 382.953125 -346.125 C 384.335938 -341.488281 385.957031 -339.171875 387.8125 -339.171875 C 390.132812 -339.171875 391.296875 -341.953125 391.296875 -347.515625 L 391.296875 -460.796875 C 391.296875 -464.960938 390.832031 -467.738281 389.90625 -469.125 C 388.976562 -470.519531 387.585938 -471.21875 385.734375 -471.21875 C 383.421875 -471.21875 380.410156 -469.363281 376.703125 -465.65625 L 349.59375 -437.859375 C 334.769531 -449.910156 318.085938 -459.0625 299.546875 -465.3125 C 281.015625 -471.570312 261.320312 -474.703125 240.46875 -474.703125 C 209.894531 -474.703125 181.515625 -467.75 155.328125 -453.84375 C 129.148438 -439.945312 106.445312 -421.644531 87.21875 -398.9375 C 67.988281 -376.238281 53.046875 -350.40625 42.390625 -321.4375 C 31.734375 -292.476562 26.40625 -263.175781 26.40625 -233.53125 C 26.40625 -199.238281 32.546875 -167.148438 44.828125 -137.265625 C 57.109375 -107.378906 73.207031 -81.316406 93.125 -59.078125 C 113.050781 -36.835938 135.523438 -19.226562 160.546875 -6.25 C 185.566406 6.71875 211.050781 13.203125 237 13.203125 C 258.78125 13.203125 279.628906 8.914062 299.546875 0.34375 C 319.472656 -8.226562 337.3125 -21.316406 353.0625 -38.921875 L 389.90625 1.390625 C 392.21875 3.703125 394.300781 4.859375 396.15625 4.859375 C 398.9375 4.859375 400.328125 3.238281 400.328125 0 L 400.328125 -134.140625 C 400.328125 -138.773438 399.171875 -141.09375 396.859375 -141.09375 Z M 396.859375 -141.09375 "/></g></g></g></g></g><g clip-path="url(#9fb2003367)"><g transform="matrix(1, 0, 0, 1, 229, 689)"><g clip-path="url(#9f65a8dd95)"><g clip-path="url(#e2286dbadb)"><path fill="#c7b99e" d="M 0.40625 0.304688 L 1036.679688 0.304688 L 1036.679688 120.507812 L 0.40625 120.507812 Z M 0.40625 0.304688 " fill-opacity="1" fill-rule="nonzero"/></g></g></g></g><g transform="matrix(1, 0, 0, 1, 198, 599)"><g clip-path="url(#020c6a1bc2)"><g clip-path="url(#ba8307a2bb)"><g transform="matrix(1, 0, 0, 1, 3, 3)"><g clip-path="url(#55029d059e)"><g clip-path="url(#9104a6adf8)"><g mask="url(#e98b7b0572)"><g transform="matrix(1, 0, 0, 1, 0, 0.000000000000113687)"><g clip-path="url(#ce3daaa822)"><g clip-path="url(#65949650c9)"><path fill="url(#94afc9795e)" d="M 133.742188 3.597656 L 133.742188 285.765625 L 962.402344 285.765625 L 962.402344 3.597656 Z M 133.742188 3.597656 " fill-rule="nonzero"/></g></g></g></g></g></g></g></g></g></g></svg>